<svg xmlns="http://www.w3.org/2000/svg" viewBox="0 0 1536 2048" width="1536" height="2048">
<rect width="100%" height="100%" fill="white"/>
<g fill="none" stroke="#000" stroke-width="14" stroke-linecap="round" stroke-linejoin="round">
<line x1="0" y1="1700" x2="1536" y2="1700"/>
<circle cx="1240" cy="240" r="110"/>
<path d="M180 250 Q260 180 340 250 Q420 180 500 250"/>
<rect x="110" y="1220" width="90" height="470" rx="20"/>
<circle cx="155" cy="1110" r="145"/>
<circle cx="1130" cy="1460" r="70"/>
<rect x="1060" y="1535" width="140" height="250" rx="45"/>
<line x1="1035" y1="1605" x2="965" y2="1685"/>
<line x1="1225" y1="1605" x2="1295" y2="1685"/>
<ellipse cx="1490" cy="1645" rx="130" ry="80"/>
<circle cx="1615" cy="1620" r="50"/>
<line x1="1425" y1="1715" x2="1425" y2="1825"/>
<line x1="1485" y1="1715" x2="1485" y2="1825"/>
<line x1="1545" y1="1715" x2="1545" y2="1825"/>
<line x1="1605" y1="1715" x2="1605" y2="1825"/>
</g>
</svg>