<svg xmlns="http://www.w3.org/2000/svg" viewBox="0 0 1536 2048" width="1536" height="2048">
<rect width="100%" height="100%" fill="white"/>
<g fill="none" stroke="#000" stroke-width="14" stroke-linecap="round" stroke-linejoin="round">
<line x1="0" y1="1700" x2="1536" y2="1700"/>
<circle cx="1240" cy="240" r="110"/>
<path d="M180 250 Q260 180 340 250 Q420 180 500 250"/>
<rect x="110" y="1220" width="90" height="470" rx="20"/>
<circle cx="155" cy="1110" r="145"/>
<circle cx="560" cy="1380" r="70"/>
<rect x="490" y="1455" width="140" height="250" rx="45"/>
<line x1="465" y1="1525" x2="395" y2="1605"/>
<line x1="655" y1="1525" x2="725" y2="1605"/>
<ellipse cx="920" cy="1565" rx="130" ry="80"/>
<circle cx="1045" cy="1540" r="50"/>
<line x1="855" y1="1635" x2="855" y2="1745"/>
<line x1="915" y1="1635" x2="915" y2="1745"/>
<line x1="975" y1="1635" x2="975" y2="1745"/>
<line x1="1035" y1="1635" x2="1035" y2="1745"/>
</g>
</svg>